<svg width="15" height="9" viewBox="0 0 15 9" fill="none" xmlns="http://www.w3.org/2000/svg">
<path d="M5.01216 5.19638C5.01216 5.51394 4.75052 5.77138 4.42777 5.77138C4.10501 5.77138 3.84337 5.51394 3.84337 5.19638C3.84337 4.87882 4.10501 4.62138 4.42777 4.62138C4.75052 4.62138 5.01216 4.8788 5.01216 5.19638ZM11.4731 4.62162C11.1505 4.62162 10.889 4.87894 10.889 5.19638C10.889 5.5138 11.1505 5.77114 11.4731 5.77114C11.7957 5.77114 12.0573 5.51382 12.0573 5.19638C12.0573 4.87894 11.7957 4.62162 11.4731 4.62162ZM13.6528 7.96831C12.1247 9.14643 9.91525 8.88263 8.7179 7.37908L7.96249 8.49052L7.2143 7.38834C6.03709 8.83724 3.90723 9.11317 2.38898 8.01346C0.826962 6.88203 0.49287 4.71894 1.64279 3.18204C1.49493 2.68959 1.26214 2.2258 0.95459 1.81095L3.15617 1.80975C4.59621 0.928115 6.26582 0.477714 7.96149 0.513447C9.61661 0.484415 11.2447 0.929088 12.6477 1.79341L14.9939 1.79519C14.6836 2.21321 14.4496 2.68126 14.3026 3.17832C15.4436 4.68376 15.1552 6.81003 13.6528 7.96831ZM7.27909 5.22613C7.27892 3.70125 6.02244 2.46522 4.47263 2.46539C2.92283 2.46556 1.66662 3.70183 1.66676 5.22671C1.66693 6.75159 2.92342 7.98762 4.47322 7.98745C6.02195 7.98565 7.27704 6.75091 7.27909 5.22709V5.22613ZM7.97627 4.97529C8.10875 3.2133 9.57369 1.83509 11.3686 1.78379C10.2937 1.32652 9.1324 1.09908 7.96147 1.11652C6.78902 1.10533 5.62641 1.32775 4.54364 1.77038C6.35648 1.80834 7.84284 3.1961 7.97627 4.97529ZM14.114 4.28511C13.5777 2.85435 11.9642 2.12225 10.5101 2.64986C9.05594 3.1775 8.31187 4.76507 8.84811 6.19581V6.19657C9.38549 7.62668 10.9988 8.35806 12.4528 7.83076C13.9065 7.30283 14.6501 5.71555 14.114 4.28511ZM6.1637 5.19621V5.19897C6.16231 6.14254 5.38374 6.90634 4.42474 6.90497C3.46575 6.9036 2.68947 6.13755 2.69086 5.19398C2.69225 4.25041 3.47082 3.48662 4.42982 3.48799C5.38713 3.49077 6.16214 4.2543 6.1637 5.19621ZM5.56598 5.19621V5.1942C5.56474 4.57558 5.05406 4.07508 4.42533 4.0763C3.7966 4.07753 3.28791 4.58 3.28916 5.19859C3.2904 5.81721 3.80109 6.31771 4.42979 6.31649C5.05711 6.31378 5.56457 5.81342 5.56598 5.19621ZM13.2086 5.19621V5.19737C13.2081 6.14093 12.4303 6.90547 11.4713 6.90497C10.5123 6.90447 9.73529 6.13918 9.7358 5.19559C9.73629 4.25202 10.5141 3.48748 11.4731 3.48799C12.4312 3.48957 13.2074 4.25356 13.2086 5.19621ZM12.6111 5.19602C12.6109 4.57741 12.101 4.07609 11.4723 4.0763C10.8436 4.07652 10.3341 4.57817 10.3343 5.19679C10.3345 5.81541 10.8444 6.3167 11.4731 6.31651C12.1014 6.31541 12.6103 5.8144 12.6111 5.19624V5.19602Z" fill="white"/>
</svg>
