<svg width="15" height="9" viewBox="0 0 15 9" fill="none" xmlns="http://www.w3.org/2000/svg">
<path d="M14.3276 1.06707C14.4241 0.747028 14.3276 0.511475 13.8635 0.511475H12.3278C11.9367 0.511475 11.7568 0.713744 11.6603 0.939056C11.6603 0.939056 10.8781 2.81069 9.77252 4.0243C9.4153 4.37507 9.25104 4.48773 9.05548 4.48773C8.95901 4.48773 8.81039 4.37507 8.81039 4.05503V1.06707C8.81039 0.683019 8.70088 0.511475 8.37756 0.511475H5.96311C5.71801 0.511475 5.572 0.6907 5.572 0.857124C5.572 1.2207 6.12477 1.30519 6.18213 2.32934V4.55174C6.18213 5.03821 6.09348 5.12782 5.89792 5.12782C5.37644 5.12782 4.10925 3.24851 3.35832 1.0978C3.20709 0.680459 3.05847 0.511475 2.66475 0.511475H1.12899C0.690946 0.511475 0.602295 0.713744 0.602295 0.939056C0.602295 1.33847 1.12377 3.32276 3.02978 5.94458C4.29959 7.73428 6.08826 8.70466 7.71528 8.70466C8.69306 8.70466 8.813 8.48959 8.813 8.11833C8.813 6.40801 8.72434 6.2467 9.21453 6.2467C9.44138 6.2467 9.83249 6.35936 10.7451 7.2222C11.788 8.24635 11.9601 8.70466 12.5442 8.70466H14.0799C14.518 8.70466 14.7396 8.48959 14.6119 8.06456C14.3198 7.171 12.346 5.33265 12.2574 5.20975C12.0305 4.92299 12.0957 4.79497 12.2574 4.53894C12.26 4.53638 14.1347 1.94528 14.3276 1.06707Z" fill="white"/>
</svg>
